<svg height='300px' width='300px'  fill="#000000" xmlns="http://www.w3.org/2000/svg" viewBox="0 0 64 64" x="0px" y="0px"><title>scarecrow, agriculture, cultivation, farm, strawman, </title><g><rect x="15" y="18" width="2" height="2"></rect><path d="M61,20H57.85l2.78-2.22-1.25-1.56L56,18.93A1,1,0,0,0,55,18H39.4a7.8,7.8,0,0,0,0-6H43V10H38.83L37.48,2.82a1,1,0,0,0-1-.82h-9a1,1,0,0,0-1,.82L25.17,10H21v2h3.6a7.8,7.8,0,0,0,0,6H19v2h6.76l.15.17c.09.11.19.22.29.32l.35.36.32.28.4.31.34.24.44.26.36.2.48.22.36.15.54.16.35.11c.2,0,.41.08.61.11l.31.05a7.39,7.39,0,0,0,1.88,0l.31-.05a6,6,0,0,0,.61-.11l.36-.11.52-.16.38-.16.46-.2.39-.22a4.36,4.36,0,0,0,.41-.24l.37-.26.36-.29c.12-.1.24-.2.35-.31l.33-.32.31-.35c0-.05.1-.1.14-.16H54v9.58l-9.67-3.42a1,1,0,0,0-.95.16,1,1,0,0,0-.37.89l2.83,25.4L37.23,50a1,1,0,0,0-1,.26L32,54.58,27.77,50.3a1,1,0,0,0-1-.26l-8.61,2.57L21,27.08a1,1,0,0,0-1.34-1L10,29.68V20h3V18H9a1,1,0,0,0-1,.93L4.63,16.22,3.38,17.78,6.15,20H3a1,1,0,0,0-1,1v4a1,1,0,0,0,1,1H6L4.4,27.2l1.2,1.6L8,27v4.13a1,1,0,0,0,.43.82,1,1,0,0,0,.92.12l9.48-3.59L16,53.89a1,1,0,0,0,.35.88,1,1,0,0,0,.93.19l7.51-2.24-1.66,2.77,1.72,1,2.36-3.93L29,54.39V61a1,1,0,0,0,1,1h4a1,1,0,0,0,1-1V54.39l1.71-1.73,1.4,2.79,1.78-.9-1-1.91L46.71,55a1,1,0,0,0,.93-.19,1,1,0,0,0,.35-.88L45.17,28.58l9.5,3.36A1,1,0,0,0,56,31V27l2.4,1.8,1.2-1.6L58,26h3a1,1,0,0,0,1-1V21A1,1,0,0,0,61,20ZM27.08,18.42A5.84,5.84,0,0,1,26,15a6,6,0,0,1,.8-3H37.2a6,6,0,0,1,.8,3,5.89,5.89,0,0,1-1.08,3.43,6,6,0,0,1-9.84,0ZM28.33,4h7.34l1.12,6H27.21ZM4,22H8v2H4ZM33,60H31V56.41l.29.29a1,1,0,0,0,1.42,0l.29-.29ZM60,24H56V22h4Z"></path><polygon points="23.76 37.66 25.17 36.24 26.59 37.66 28 36.24 26.59 34.83 28 33.41 29.41 34.83 30.83 33.41 29.41 32 30.83 30.59 32.24 32 33.66 30.59 32.24 29.17 33.66 27.76 32.24 26.34 30.83 27.76 29.41 26.34 28 27.76 29.41 29.17 28 30.59 26.59 29.17 25.17 30.59 26.59 32 25.17 33.41 23.76 32 22.34 33.41 23.76 34.83 22.34 36.24 23.76 37.66"></polygon><polygon points="35.17 44.41 36.59 43 38 44.41 36.59 45.83 38 47.24 39.41 45.83 40.83 47.24 42.24 45.83 40.83 44.41 42.24 43 40.83 41.59 39.41 43 38 41.59 39.41 40.17 38 38.76 36.59 40.17 35.17 38.76 33.76 40.17 35.17 41.59 33.76 43 35.17 44.41"></polygon><rect x="29" y="17" width="6" height="2"></rect><rect x="14" y="22" width="2" height="2"></rect><rect x="25" y="44" width="2" height="2"></rect><rect x="50" y="24" width="2" height="2"></rect></g></svg>